<?xml version="1.0" standalone="no"?>
<!DOCTYPE svg PUBLIC "-//W3C//DTD SVG 20010904//EN"
 "http://www.w3.org/TR/2001/REC-SVG-20010904/DTD/svg10.dtd">
<svg version="1.0" xmlns="http://www.w3.org/2000/svg"
 width="1020.000000pt" height="1020.000000pt" viewBox="0 0 1020.000000 1020.000000"
 preserveAspectRatio="xMidYMid meet">
<metadata>
Created by potrace 1.16, written by Peter Selinger 2001-2019
</metadata>
<g transform="translate(0.000000,1020.000000) scale(0.010000,-0.010000)"
fill="#000000" stroke="none">
<path d="M48300 95767 c-1511 -427 -2044 -1436 -1797 -3398 154 -1227 113
-1368 -559 -1889 -1357 -1054 -1635 -1886 -1757 -5268 -119 -3291 89 -4214
1194 -5282 637 -616 762 -877 1028 -2141 293 -1395 315 -3027 51 -3786 -243
-698 -1025 -1505 -1633 -1685 -237 -70 -672 -343 -990 -621 -531 -465 -1020
-694 -1487 -697 -110 -1 -447 -117 -750 -259 -302 -141 -797 -302 -1100 -357
-302 -56 -850 -232 -1217 -393 -366 -160 -731 -291 -810 -291 -79 0 -341 -105
-584 -234 -242 -129 -597 -287 -789 -350 -723 -240 -1621 -939 -2079 -1616
-511 -757 -2481 -4748 -2643 -5355 -141 -527 -79 -679 403 -983 1095 -691
1074 -2311 -122 -9714 -414 -2561 -1230 -3648 -1891 -2520 -315 537 -1162
1338 -1617 1528 -847 354 -1191 46 -1295 -1162 -111 -1295 -231 -1787 -557
-2295 -507 -791 -316 -1372 734 -2231 576 -470 588 -662 84 -1333 -979 -1303
-1069 -2088 -517 -4485 421 -1827 621 -2340 1139 -2920 235 -264 693 -862
1017 -1330 324 -467 986 -1385 1472 -2038 1059 -1426 1681 -2466 2038 -3411
622 -1643 743 -1911 1197 -2662 527 -872 1440 -1859 1955 -2114 2266 -1122
3589 -1260 14332 -1499 9827 -218 11135 -171 13028 467 2570 865 3678 1970
4580 4569 472 1359 942 2283 1569 3085 852 1090 2567 3091 3589 4187 1100
1179 1447 1769 1835 3116 596 2071 442 3226 -586 4384 -520 585 -589 920 -240
1163 1937 1348 2165 1779 1480 2803 -147 220 -483 963 -747 1650 -925 2407
-946 2416 -2421 987 -1161 -1125 -1582 -1270 -2427 -842 -1083 549 -1246 994
-2010 5497 -785 4624 -791 4477 213 5683 683 820 819 1118 762 1667 -98 964
-1806 4594 -2779 5905 -538 726 -1705 1803 -1953 1803 -60 0 -330 112 -601
250 -271 137 -650 300 -842 362 -494 158 -1645 647 -2339 994 -324 162 -708
294 -853 294 -540 0 -2231 587 -2761 958 -163 115 -499 307 -747 427 -1703
823 -2107 1698 -1745 3777 416 2390 695 3117 1395 3638 881 655 1584 2642
1363 3850 -60 330 -136 1230 -169 2000 -80 1900 -190 2458 -677 3442 -405 819
-1023 1559 -1739 2081 -305 223 -305 223 -347 1600 -55 1817 -269 2257 -1381
2841 -424 223 -564 237 -2450 258 -1377 15 -2140 -18 -2450 -105z m-8759
-43142 c193 -931 364 -3104 468 -5931 116 -3186 115 -3259 -95 -4088 -118
-464 -214 -944 -214 -1067 0 -738 -422 -729 -1066 25 -620 725 -1257 1208
-1773 1344 -937 247 -1074 592 -555 1401 232 363 364 773 547 1709 270 1380
524 2281 1322 4682 672 2024 758 2200 1070 2200 180 0 253 -67 296 -275z
m24313 -3900 c528 -1636 1031 -3175 1118 -3419 203 -566 1486 -1868 2166
-2197 378 -183 747 -254 1640 -315 1453 -100 1634 -221 1442 -968 -208 -808
-1737 -1831 -2733 -1828 -501 2 -621 -88 -731 -547 -100 -416 -236 -551 -553
-551 -495 0 -656 310 -535 1028 173 1020 -142 1228 -677 447 -508 -740 -696
-875 -1216 -875 -877 0 -963 113 -1222 1611 -89 517 -299 1502 -467 2189 -333
1362 -335 1211 122 6943 116 1460 115 1457 445 1457 227 0 293 -165 1201
-2975z"/>
</g>
</svg>
